name rise43.5482peak65.4966fall89.1036.mot
datacolumns 19
datarows 29
range 24.24657200000000 24.29324000000000
endheader
time	ground_force1_vx	ground_force1_vy	ground_force1_vz	ground_force1_px	ground_force1_py	ground_force1_pz	ground_force2_vx	ground_force2_vy	ground_force2_vz	ground_force2_px	ground_force2_py	ground_force2_pz	ground_torque1_x	ground_torque1_y	ground_torque1_z	ground_torque2_x	ground_torque2_y	ground_torque2_z	
24.24657200000000	-42.74189000000000	779.60069599999997	53.99087800000000	0.06658400000000	0.00000000000000	0.11032700000000	-4.74134800000000	33.55028300000000	3.65880600000000	0.27428900000000	0.00000000000000	-0.09108800000000	0.00000000000000	17.33773600000000	0.00000000000000	0.00000000000000	1.23569300000000	0.00000000000000	
24.24823200000000	-43.27543500000000	778.30139199999996	54.01354300000000	0.06575300000000	0.00000000000000	0.11026100000000	-5.40246200000000	40.20966800000000	4.20518500000000	0.27958100000000	0.00000000000000	-0.09133300000000	0.00000000000000	17.29335200000000	0.00000000000000	0.00000000000000	1.45156600000000	0.00000000000000	
24.24991600000000	-43.82393400000000	776.90341699999999	54.01694500000000	0.06492400000000	0.00000000000000	0.11019200000000	-5.99963400000000	47.03679300000000	4.71444900000000	0.28423200000000	0.00000000000000	-0.09156400000000	0.00000000000000	17.25024600000000	0.00000000000000	0.00000000000000	1.66061600000000	0.00000000000000	
24.25157000000000	-44.38736600000000	775.40458799999999	54.00032600000000	0.06409700000000	0.00000000000000	0.11012000000000	-6.51258300000000	53.92116500000000	5.17193200000000	0.28834900000000	0.00000000000000	-0.09178300000000	0.00000000000000	17.20853800000000	0.00000000000000	0.00000000000000	1.85711300000000	0.00000000000000	
24.25323500000000	-44.96564900000000	773.80270399999995	53.96295200000000	0.06327300000000	0.00000000000000	0.11004600000000	-6.92580600000000	60.77015300000000	5.56640100000000	0.29201800000000	0.00000000000000	-0.09199300000000	0.00000000000000	17.16834300000000	0.00000000000000	0.00000000000000	2.03646900000000	0.00000000000000	
24.25489900000000	-45.55863700000000	772.09554800000001	53.90411900000000	0.06245200000000	0.00000000000000	0.10996800000000	-7.22911100000000	67.51364500000000	5.89045300000000	0.29530500000000	0.00000000000000	-0.09219400000000	0.00000000000000	17.12976500000000	0.00000000000000	0.00000000000000	2.19543600000000	0.00000000000000	
24.25657000000000	-46.16612100000000	770.28088400000001	53.82315200000000	0.06163400000000	0.00000000000000	0.10988700000000	-7.41762800000000	74.10612900000000	6.14055500000000	0.29826600000000	0.00000000000000	-0.09238700000000	0.00000000000000	17.09290000000000	0.00000000000000	0.00000000000000	2.33216900000000	0.00000000000000	
24.25824000000000	-46.78782800000000	768.35646699999995	53.71941300000000	0.06081900000000	0.00000000000000	0.10980300000000	-7.49139900000000	80.52640500000000	6.31674600000000	0.30094600000000	0.00000000000000	-0.09257500000000	0.00000000000000	17.05783600000000	0.00000000000000	0.00000000000000	2.44615600000000	0.00000000000000	
24.25990300000000	-47.42341600000000	766.32003599999996	53.59229900000000	0.06000800000000	0.00000000000000	0.10971600000000	-7.45462600000000	86.77535000000000	6.42210500000000	0.30338300000000	0.00000000000000	-0.09275600000000	0.00000000000000	17.02464800000000	0.00000000000000	0.00000000000000	2.53805500000000	0.00000000000000	
24.26157200000000	-48.07247700000000	764.16932199999997	53.44124700000000	0.05920000000000	0.00000000000000	0.10962500000000	-7.31472200000000	92.87225599999999	6.46205300000000	0.30560600000000	0.00000000000000	-0.09293200000000	0.00000000000000	16.99340200000000	0.00000000000000	0.00000000000000	2.60945300000000	0.00000000000000	
24.26324000000000	-48.73453500000000	761.90205200000003	53.26573600000000	0.05839700000000	0.00000000000000	0.10953200000000	-7.08125300000000	98.85028600000000	6.44358800000000	0.30764300000000	0.00000000000000	-0.09310400000000	0.00000000000000	16.96415100000000	0.00000000000000	0.00000000000000	2.66259500000000	0.00000000000000	
24.26490600000000	-49.40904400000000	759.51594699999998	53.06528900000000	0.05759700000000	0.00000000000000	0.10943400000000	-6.76490600000000	104.75159700000000	6.37451700000000	0.30951400000000	0.00000000000000	-0.09327100000000	0.00000000000000	16.93693500000000	0.00000000000000	0.00000000000000	2.70010600000000	0.00000000000000	
24.26657200000000	-50.09538800000000	757.00873300000001	52.83947600000000	0.05680100000000	0.00000000000000	0.10933400000000	-6.37653500000000	110.62256600000001	6.26275900000000	0.31123800000000	0.00000000000000	-0.09343500000000	0.00000000000000	16.91178400000000	0.00000000000000	0.00000000000000	2.72472100000000	0.00000000000000	
24.26823800000000	-50.79288200000000	754.37814000000003	52.58791500000000	0.05601000000000	0.00000000000000	0.10923000000000	-5.92636500000000	116.50949500000000	6.11575100000000	0.31283200000000	0.00000000000000	-0.09359600000000	0.00000000000000	16.88871200000000	0.00000000000000	0.00000000000000	2.73906300000000	0.00000000000000	
24.26990600000000	-51.50077200000000	751.62190799999996	52.31027900000000	0.05522400000000	0.00000000000000	0.10912200000000	-5.42339000000000	122.45504600000000	5.94000200000000	0.31430700000000	0.00000000000000	-0.09375300000000	0.00000000000000	16.86771800000000	0.00000000000000	0.00000000000000	2.74546000000000	0.00000000000000	
24.27157200000000	-52.21823300000000	748.73779500000001	52.00628900000000	0.05444200000000	0.00000000000000	0.10901200000000	-4.87496200000000	128.49555100000001	5.74078200000000	0.31567600000000	0.00000000000000	-0.09390800000000	0.00000000000000	16.84878900000000	0.00000000000000	0.00000000000000	2.74581700000000	0.00000000000000	
24.27323900000000	-52.94436900000000	745.72357699999998	51.67572400000000	0.05366600000000	0.00000000000000	0.10889700000000	-4.28659400000000	134.65925700000000	5.52196800000000	0.31694900000000	0.00000000000000	-0.09406000000000	0.00000000000000	16.83189400000000	0.00000000000000	0.00000000000000	2.74154800000000	0.00000000000000	
24.27489900000000	-53.67821800000000	742.57705799999997	51.31842100000000	0.05289400000000	0.00000000000000	0.10877900000000	-3.66192600000000	140.96546300000000	5.28601600000000	0.31813400000000	0.00000000000000	-0.09420900000000	0.00000000000000	16.81698700000000	0.00000000000000	0.00000000000000	2.73354600000000	0.00000000000000	
24.27657200000000	-54.41874600000000	739.29607599999997	50.93427200000000	0.05212800000000	0.00000000000000	0.10865800000000	-3.00285400000000	147.42446000000001	5.03404700000000	0.31923800000000	0.00000000000000	-0.09435700000000	0.00000000000000	16.80400700000000	0.00000000000000	0.00000000000000	2.72221100000000	0.00000000000000	
24.27824000000000	-55.16485300000000	735.87850600000002	50.52323100000000	0.05136700000000	0.00000000000000	0.10853300000000	-2.30975900000000	154.03811899999999	4.76601500000000	0.32026700000000	0.00000000000000	-0.09450200000000	0.00000000000000	16.79287600000000	0.00000000000000	0.00000000000000	2.70749800000000	0.00000000000000	
24.27991900000000	-55.91537200000000	732.32226700000001	50.08531200000000	0.05061100000000	0.00000000000000	0.10840500000000	-1.58182100000000	160.80099000000001	4.48093000000000	0.32122700000000	0.00000000000000	-0.09464600000000	0.00000000000000	16.78349800000000	0.00000000000000	0.00000000000000	2.68899500000000	0.00000000000000	
24.28157100000000	-56.66907000000000	728.62533399999995	49.62059100000000	0.04986100000000	0.00000000000000	0.10827400000000	-0.81736600000000	167.70170200000001	4.17711400000000	0.32212200000000	0.00000000000000	-0.09478800000000	0.00000000000000	16.77576200000000	0.00000000000000	0.00000000000000	2.66601700000000	0.00000000000000	
24.28323800000000	-57.42465200000000	724.78573600000004	49.12920700000000	0.04911600000000	0.00000000000000	0.10813900000000	-0.01421500000000	174.72453600000000	3.85246000000000	0.32295600000000	0.00000000000000	-0.09492800000000	0.00000000000000	16.76954000000000	0.00000000000000	0.00000000000000	2.63769400000000	0.00000000000000	
24.28489900000000	-58.18075700000000	720.80157099999997	48.61136100000000	0.04837700000000	0.00000000000000	0.10800100000000	0.82998100000000	181.85100199999999	3.50467600000000	0.32373300000000	0.00000000000000	-0.09506700000000	0.00000000000000	16.76468700000000	0.00000000000000	0.00000000000000	2.60306600000000	0.00000000000000	
24.28657300000000	-58.93596800000000	716.67100700000003	48.06731900000000	0.04764300000000	0.00000000000000	0.10785900000000	1.71745500000000	189.06131500000001	3.13150000000000	0.32445400000000	0.00000000000000	-0.09520500000000	0.00000000000000	16.76103900000000	0.00000000000000	0.00000000000000	2.56116400000000	0.00000000000000	
24.28823400000000	-59.68880700000000	712.39229699999999	47.49741000000000	0.04691400000000	0.00000000000000	0.10771400000000	2.65009100000000	196.33567600000001	2.73087600000000	0.32512400000000	0.00000000000000	-0.09534200000000	0.00000000000000	16.75841800000000	0.00000000000000	0.00000000000000	2.51107100000000	0.00000000000000	
24.28990200000000	-60.43774100000000	707.96377800000005	46.90202600000000	0.04619100000000	0.00000000000000	0.10756700000000	3.62925300000000	203.65530600000000	2.30107900000000	0.32574300000000	0.00000000000000	-0.09547700000000	0.00000000000000	16.75663000000000	0.00000000000000	0.00000000000000	2.45198300000000	0.00000000000000	
24.29156600000000	-61.18118600000000	703.38388599999996	46.28162300000000	0.04547200000000	0.00000000000000	0.10741600000000	4.65567600000000	211.00320600000001	1.84080500000000	0.32631300000000	0.00000000000000	-0.09561200000000	0.00000000000000	16.75546400000000	0.00000000000000	0.00000000000000	2.38323400000000	0.00000000000000	
24.29324000000000	-61.91750600000000	698.65116399999999	45.63671900000000	0.04475800000000	0.00000000000000	0.10726200000000	5.72941900000000	218.36464100000001	1.34920700000000	0.32683500000000	0.00000000000000	-0.09574600000000	0.00000000000000	16.75469400000000	0.00000000000000	0.00000000000000	2.30431900000000	0.00000000000000	
